<svg xmlns="http://www.w3.org/2000/svg" viewBox="0 0 409 538" width="409" height="538">
  <defs>
    <linearGradient id="g" gradientUnits="userSpaceOnUse" x1="204.5" y1="0" x2="204.5" y2="538">
      <stop offset="0" stop-color="#7CF0DA"/><stop offset=".55" stop-color="#4BE3C0"/><stop offset="1" stop-color="#239E86"/>
    </linearGradient>
  </defs>
  <path d="M175.91 521.77 C169.87 516.94 173.56 505.92 180.75 507.29 C182.01 507.53 183.29 507.34 183.58 506.87 C183.88 506.39 184.89 506.0 185.84 506.0 C186.79 506.0 190.36 502.82 193.78 498.93 L200.0 491.87 L200.0 457.81 C200.0 418.94 201.14 421.9 190.25 432.41 L184.0 438.44 L184.0 446.79 C184.0 456.81 184.81 458.56 190.58 461.04 C197.26 463.9 198.57 468.87 193.95 473.82 C188.05 480.15 176.98 472.5 181.05 464.91 C181.87 463.38 181.65 462.31 180.05 460.07 C178.48 457.87 178.0 455.64 178.0 450.6 C178.0 446.97 177.66 444.01 177.25 444.02 C176.84 444.03 174.12 446.29 171.2 449.05 L165.9 454.07 L166.32 468.78 C166.55 476.88 167.07 484.94 167.47 486.69 C169.0 493.32 159.0 498.0 154.0 493.0 C149.97 488.97 152.95 480.0 158.31 480.0 C159.77 480.0 160.0 478.77 160.0 471.0 C160.0 461.16 160.0 461.16 156.15 463.87 C154.69 464.9 150.7 467.15 147.29 468.87 C143.87 470.59 140.53 473.01 139.87 474.25 C136.08 481.37 126.64 480.17 124.75 472.33 C124.05 469.41 127.35 464.2 130.38 463.44 C131.78 463.09 134.26 463.5 136.17 464.41 C139.32 465.9 139.74 465.86 144.0 463.69 C154.78 458.2 158.0 455.85 158.0 453.48 C158.0 450.8 160.37 447.71 171.21 436.27 C175.49 431.75 179.0 427.56 179.0 426.97 C179.0 426.38 176.19 427.47 172.75 429.39 C169.31 431.3 160.66 435.41 153.53 438.52 C141.18 443.89 140.03 444.65 129.53 454.34 C123.46 459.93 116.37 466.42 113.77 468.75 L109.04 473.0 L98.75 473.0 C88.55 473.0 88.42 473.03 85.81 476.0 C79.46 483.24 69.14 476.63 72.62 467.54 C74.2 463.43 81.21 462.28 85.0 465.52 C86.12 466.48 89.06 466.64 96.68 466.15 L106.86 465.5 L122.68 450.46 L138.5 435.42 L157.0 426.32 C175.26 417.33 188.89 409.25 194.25 404.21 L197.0 401.63 L197.0 322.54 L197.0 243.46 L188.75 235.44 C184.21 231.04 177.12 224.33 173.0 220.53 C168.88 216.73 161.11 209.36 155.75 204.15 L146.0 194.68 L146.0 189.05 L146.0 183.41 L134.81 172.96 L123.62 162.5 L118.17 162.43 C113.21 162.37 112.41 162.03 109.36 158.69 C102.4 151.1 107.37 139.0 117.45 139.0 C119.75 139.0 119.99 138.63 119.9 135.25 C119.73 128.8 118.73 126.84 115.02 125.63 C105.64 122.57 104.29 108.0 112.97 103.52 C123.26 98.19 134.6 107.59 131.01 118.48 L129.78 122.21 L137.14 129.07 C141.19 132.84 145.06 135.94 145.75 135.96 C146.7 135.99 147.0 132.18 147.0 120.12 L147.0 104.24 L144.01 103.0 C140.31 101.47 137.0 96.31 137.0 92.08 C137.0 78.16 156.65 75.33 161.04 88.61 C162.49 93.03 160.12 100.22 156.4 102.66 C154.04 104.2 154.0 104.49 154.0 119.43 L154.0 134.63 L157.0 137.5 C159.53 139.92 160.0 141.14 160.0 145.22 C160.0 149.9 160.23 150.28 166.62 156.28 C170.26 159.7 173.56 162.62 173.95 162.78 C174.34 162.93 174.68 156.41 174.7 148.28 C174.74 131.57 174.42 130.49 167.71 124.3 C163.02 119.98 160.95 114.97 163.89 115.04 C164.77 115.06 168.99 118.41 173.25 122.47 L181.0 129.86 L181.0 147.33 L181.0 164.8 L188.75 172.04 L196.5 179.28 L196.77 157.94 L197.04 136.6 L180.3 119.89 C171.09 110.69 163.4 102.71 163.22 102.15 C163.03 101.59 163.62 99.71 164.52 97.96 L166.16 94.78 L168.89 97.39 C173.71 102.02 174.0 101.32 174.0 85.0 C174.0 72.69 173.74 70.0 172.58 70.0 C171.79 70.0 169.79 68.63 168.11 66.96 C158.01 56.86 170.3 40.93 183.09 47.55 C191.67 51.98 191.92 65.34 183.5 69.18 L181.0 70.32 L181.0 86.02 L181.0 101.72 L190.0 109.94 C196.94 116.29 199.14 117.81 199.61 116.58 C199.94 115.71 200.28 98.37 200.36 78.05 L200.5 41.09 L198.25 40.07 C197.01 39.5 195.1 37.57 194.0 35.77 C187.78 25.57 197.85 13.16 208.8 17.54 C218.46 21.4 219.73 35.98 210.75 40.07 L208.5 41.09 L208.64 78.05 C208.72 98.37 209.06 115.71 209.39 116.58 C209.86 117.81 212.06 116.29 219.0 109.94 L228.0 101.72 L228.0 86.02 L228.0 70.32 L225.5 69.18 C217.08 65.34 217.33 51.98 225.91 47.55 C238.7 40.93 250.99 56.86 240.89 66.96 C239.21 68.63 237.21 70.0 236.42 70.0 C235.26 70.0 235.0 72.69 235.0 85.0 C235.0 101.32 235.29 102.02 240.11 97.39 L242.84 94.78 L244.48 97.96 C245.38 99.71 245.97 101.59 245.78 102.15 C245.6 102.71 237.91 110.69 228.7 119.89 L211.96 136.6 L212.23 157.94 L212.5 179.28 L220.25 172.04 L228.0 164.8 L228.0 147.33 L228.0 129.86 L235.75 122.47 C240.01 118.41 244.23 115.06 245.11 115.04 C248.05 114.97 245.98 119.98 241.29 124.3 C234.58 130.49 234.26 131.57 234.3 148.28 C234.32 156.41 234.66 162.93 235.05 162.78 C235.44 162.62 238.74 159.7 242.38 156.28 C248.77 150.28 249.0 149.9 249.0 145.22 C249.0 141.14 249.47 139.92 252.0 137.5 L255.0 134.63 L255.0 119.43 C255.0 104.49 254.96 104.2 252.6 102.66 C248.88 100.22 246.51 93.03 247.96 88.61 C252.35 75.33 272.0 78.16 272.0 92.08 C272.0 96.31 268.69 101.47 264.99 103.0 L262.0 104.24 L262.0 120.12 C262.0 132.18 262.3 135.99 263.25 135.96 C263.94 135.94 267.8 132.85 271.83 129.09 L279.16 122.27 L277.96 118.26 C274.67 107.26 285.77 98.21 296.03 103.52 C304.71 108.0 303.36 122.57 293.98 125.63 C290.27 126.84 289.27 128.8 289.1 135.25 C289.01 138.63 289.25 139.0 291.55 139.0 C301.63 139.0 306.6 151.1 299.64 158.69 C296.59 162.03 295.79 162.37 290.83 162.43 L285.38 162.5 L274.19 172.96 L263.0 183.41 L263.0 189.05 L263.0 194.68 L253.25 204.15 C247.89 209.36 240.12 216.73 236.0 220.53 C231.88 224.33 224.79 231.04 220.25 235.44 L212.0 243.46 L212.0 322.54 L212.0 401.63 L214.75 404.21 C220.11 409.25 233.74 417.33 252.0 426.32 L270.5 435.42 L286.32 450.46 L302.14 465.5 L312.32 466.15 C319.94 466.64 322.88 466.48 324.0 465.52 C327.79 462.28 334.8 463.43 336.38 467.54 C339.86 476.63 329.54 483.24 323.19 476.0 C320.58 473.03 320.45 473.0 310.25 473.0 L299.96 473.0 L295.23 468.75 C292.63 466.42 285.54 459.93 279.47 454.34 C268.97 444.65 267.82 443.89 255.47 438.52 C248.34 435.41 239.69 431.3 236.25 429.39 C232.81 427.47 230.0 426.38 230.0 426.97 C230.0 427.56 233.51 431.75 237.79 436.27 C248.63 447.71 251.0 450.8 251.0 453.48 C251.0 455.85 254.22 458.2 265.0 463.69 C269.26 465.86 269.68 465.9 272.83 464.41 C274.74 463.5 277.22 463.09 278.62 463.44 C281.65 464.2 284.95 469.41 284.25 472.33 C282.36 480.17 272.92 481.37 269.13 474.25 C268.47 473.01 265.13 470.59 261.71 468.87 C258.3 467.15 254.31 464.9 252.85 463.87 C249.0 461.16 249.0 461.16 249.0 471.0 C249.0 479.05 249.19 480.0 250.83 480.0 C256.03 480.0 258.94 489.06 255.0 493.0 C250.0 498.0 240.0 493.32 241.53 486.69 C241.93 484.94 242.45 476.88 242.68 468.78 L243.1 454.07 L237.8 449.05 C234.88 446.29 232.16 444.03 231.75 444.02 C231.34 444.01 231.0 446.97 231.0 450.6 C231.0 455.64 230.52 457.87 228.95 460.07 C227.35 462.31 227.13 463.38 227.95 464.91 C232.02 472.5 220.95 480.15 215.05 473.82 C210.43 468.87 211.74 463.9 218.42 461.04 C224.19 458.56 225.0 456.81 225.0 446.79 L225.0 438.44 L218.75 432.41 C207.86 421.9 209.0 418.94 209.0 457.81 L209.0 491.87 L215.22 498.93 C218.64 502.82 222.21 506.0 223.16 506.0 C224.11 506.0 225.12 506.39 225.42 506.87 C225.71 507.34 226.99 507.53 228.25 507.29 C231.25 506.72 235.61 510.17 236.28 513.66 C237.34 519.25 232.71 523.87 227.32 522.59 C225.77 522.21 222.77 521.53 220.65 521.07 C215.29 519.9 213.56 517.83 213.53 512.55 C213.51 508.97 212.76 507.14 209.63 503.04 C204.43 496.22 204.72 496.23 199.82 502.5 C196.22 507.12 195.5 508.77 195.47 512.51 C195.44 517.95 193.73 519.9 187.85 521.19 C179.93 522.93 177.52 523.05 175.91 521.77 Z M19.11 449.25 C13.86 444.89 17.25 435.0 24.0 435.0 C26.27 435.0 27.98 433.63 32.67 428.07 L38.5 421.13 L58.0 421.06 C84.12 420.97 102.12 417.88 110.0 412.14 C111.83 410.81 115.2 410.15 122.6 409.67 C143.1 408.33 158.57 402.63 169.25 392.47 L175.0 387.0 L175.0 346.21 L175.0 305.42 L170.71 301.21 L166.42 297.0 L139.29 297.0 L112.16 297.0 L106.75 292.06 L101.35 287.12 L97.5 288.44 C87.64 291.83 78.15 281.81 82.51 272.62 C88.55 259.89 106.27 263.93 106.27 278.04 C106.27 281.43 106.64 282.03 109.29 282.95 C112.99 284.24 155.0 284.38 155.0 283.1 C155.0 282.61 149.76 277.32 143.35 271.35 L131.71 260.5 L105.03 260.8 L78.35 261.1 L71.18 254.46 C64.26 248.05 63.87 247.85 60.07 248.49 C52.19 249.82 45.01 243.69 45.0 235.63 C45.0 232.47 45.71 231.06 48.88 227.88 C57.88 218.88 71.33 226.37 69.37 239.29 C68.95 242.11 69.32 242.77 72.46 244.77 C75.89 246.95 76.79 247.03 94.27 246.77 L112.5 246.5 L107.76 243.46 C105.16 241.79 97.64 235.94 91.04 230.46 C79.6 220.95 79.03 220.3 78.42 216.0 C78.08 213.53 77.05 208.36 76.15 204.51 C74.51 197.56 74.48 197.52 70.66 196.91 C60.54 195.27 56.77 183.27 64.24 176.42 C74.7 166.83 90.87 179.57 83.13 191.31 C80.16 195.82 86.12 208.69 95.54 218.11 C99.33 221.9 103.01 225.0 103.71 225.0 C104.7 225.0 105.0 221.78 105.0 211.19 L105.0 197.37 L101.55 195.72 C88.59 189.54 96.55 169.28 110.43 173.11 C116.27 174.72 119.5 179.28 119.5 185.9 L119.5 191.68 L132.36 203.09 C139.44 209.36 146.3 215.33 147.61 216.33 C149.98 218.15 150.0 218.3 150.0 237.46 L150.0 256.75 L162.5 268.48 L175.0 280.21 L175.0 258.1 C175.0 245.95 175.39 236.0 175.87 236.0 C176.34 236.0 177.99 237.91 179.53 240.25 C181.06 242.59 184.27 247.05 186.66 250.17 L191.0 255.85 L191.0 324.17 C190.99 390.3 190.93 392.6 189.03 395.72 C180.8 409.21 157.21 421.42 130.32 426.1 C123.31 427.33 123.19 427.4 117.52 434.85 C115.36 437.68 113.23 440.0 112.79 440.0 C112.36 440.0 112.0 441.54 112.0 443.43 C112.0 447.55 108.27 451.0 103.82 451.0 C100.15 451.0 96.0 447.01 96.0 443.47 C96.0 440.32 100.95 435.0 103.89 435.0 C105.64 435.0 108.79 431.42 107.83 430.52 C107.65 430.35 100.97 431.73 93.0 433.6 C79.02 436.87 77.77 436.99 58.05 436.99 L37.61 437.0 L34.8 439.69 C33.26 441.16 32.0 443.34 32.0 444.51 C32.0 449.83 23.55 452.94 19.11 449.25 Z M299.63 448.93 C297.7 447.41 297.0 445.94 297.0 443.43 C297.0 441.54 296.64 440.0 296.21 440.0 C295.77 440.0 293.64 437.68 291.48 434.85 C285.81 427.4 285.69 427.33 278.68 426.1 C251.79 421.42 228.2 409.21 219.97 395.72 C218.07 392.6 218.01 390.3 218.0 324.17 L218.0 255.85 L222.34 250.17 C224.73 247.05 227.94 242.59 229.47 240.25 C231.01 237.91 232.66 236.0 233.13 236.0 C233.61 236.0 234.0 245.95 234.0 258.1 L234.0 280.21 L246.5 268.48 L259.0 256.75 L259.0 237.46 C259.0 218.3 259.02 218.15 261.39 216.33 C262.7 215.33 269.56 209.36 276.64 203.09 L289.5 191.68 L289.5 185.9 C289.5 179.28 292.73 174.72 298.57 173.11 C312.45 169.28 320.41 189.54 307.45 195.72 L304.0 197.37 L304.0 211.19 C304.0 221.78 304.3 225.0 305.29 225.0 C305.99 225.0 309.67 221.9 313.46 218.11 C322.88 208.69 328.84 195.82 325.87 191.31 C318.13 179.57 334.3 166.83 344.76 176.42 C352.23 183.27 348.46 195.27 338.34 196.91 C334.52 197.52 334.49 197.56 332.85 204.51 C331.95 208.36 330.92 213.53 330.58 216.0 C329.97 220.3 329.4 220.95 317.96 230.46 C311.36 235.94 303.84 241.79 301.24 243.46 L296.5 246.5 L314.73 246.77 C332.21 247.03 333.11 246.95 336.54 244.77 C339.68 242.77 340.05 242.11 339.63 239.29 C338.35 230.91 343.81 224.0 351.69 224.0 C357.96 224.0 364.0 229.71 364.0 235.63 C363.99 243.69 356.81 249.82 348.93 248.49 C345.13 247.85 344.74 248.05 337.82 254.46 L330.65 261.1 L303.97 260.8 L277.29 260.5 L265.65 271.35 C259.24 277.32 254.0 282.61 254.0 283.1 C254.0 284.38 296.01 284.24 299.71 282.95 C302.36 282.03 302.73 281.43 302.73 278.04 C302.73 263.93 320.45 259.89 326.49 272.62 C330.85 281.81 321.36 291.83 311.5 288.44 L307.65 287.12 L302.25 292.06 L296.84 297.0 L269.63 297.0 L242.42 297.0 L238.21 301.29 L234.0 305.58 L234.0 346.29 L234.0 387.0 L239.75 392.47 C250.43 402.63 265.9 408.33 286.4 409.67 C293.8 410.15 297.17 410.81 299.0 412.14 C306.88 417.88 324.88 420.97 351.0 421.06 L370.5 421.13 L376.33 428.07 C381.02 433.63 382.73 435.0 385.0 435.0 C391.75 435.0 395.14 444.89 389.89 449.25 C385.36 453.01 377.0 449.85 377.0 444.37 C377.0 443.27 375.74 441.16 374.2 439.69 L371.39 437.0 L350.95 436.99 C331.23 436.99 329.98 436.87 316.0 433.6 C308.02 431.73 301.35 430.35 301.17 430.52 C300.21 431.42 303.36 435.0 305.11 435.0 C308.05 435.0 313.0 440.32 313.0 443.47 C313.0 449.74 304.88 453.05 299.63 448.93 Z M136.0 232.12 L136.0 217.23 L131.75 213.47 C129.41 211.4 124.51 206.85 120.86 203.35 C117.21 199.86 113.72 197.0 113.11 197.0 C112.35 197.0 112.0 201.62 112.0 211.84 L112.0 226.69 L123.25 236.81 C129.44 242.37 134.84 246.94 135.25 246.96 C135.66 246.98 136.0 240.3 136.0 232.12 Z M285.9 236.61 L297.0 226.72 L297.0 211.86 C297.0 201.62 296.65 197.0 295.89 197.0 C295.28 197.0 291.79 199.86 288.14 203.35 C284.49 206.85 279.59 211.4 277.25 213.47 L273.0 217.23 L273.0 232.2 C273.0 240.64 273.39 247.02 273.9 246.83 C274.39 246.65 279.79 242.05 285.9 236.61 Z M189.28 188.77 C185.01 184.77 176.94 177.11 171.36 171.75 C165.78 166.39 160.94 162.0 160.6 162.0 C160.27 162.0 160.01 167.96 160.02 175.25 L160.03 188.5 L178.27 205.58 L196.5 222.65 L196.78 209.35 L197.06 196.05 L189.28 188.77 Z M248.98 175.25 C248.99 167.96 248.73 162.0 248.4 162.0 C248.06 162.0 243.22 166.39 237.64 171.75 C232.06 177.11 224.01 184.76 219.75 188.75 L212.0 195.99 L212.0 209.55 L212.0 223.11 L230.48 205.81 L248.97 188.5 L248.98 175.25 Z M146.18 160.25 L145.86 148.5 L136.7 139.25 C131.66 134.16 127.19 130.0 126.77 130.0 C125.04 130.0 126.03 141.0 128.12 145.01 C129.69 148.03 130.08 150.05 129.62 152.79 C129.01 156.41 129.21 156.7 137.25 164.21 C141.79 168.45 145.72 171.93 146.0 171.96 C146.28 171.98 146.36 166.71 146.18 160.25 Z M271.57 164.35 C279.84 156.83 279.97 156.63 279.37 152.89 C278.92 150.07 279.31 148.02 280.88 145.01 C282.97 141.0 283.96 130.0 282.23 130.0 C281.81 130.0 277.34 134.16 272.3 139.25 L263.14 148.5 L262.82 160.25 C262.64 166.71 262.65 172.0 262.83 172.0 C263.02 172.0 266.95 168.56 271.57 164.35 Z" fill="url(#g)" fill-rule="evenodd"/>
</svg>